<?xml version="1.0" encoding="UTF-8" standalone="no"?>
<svg
   xmlns:dc="http://purl.org/dc/elements/1.1/"
   xmlns:cc="http://creativecommons.org/ns#"
   xmlns:rdf="http://www.w3.org/1999/02/22-rdf-syntax-ns#"
   xmlns:svg="http://www.w3.org/2000/svg"
   xmlns="http://www.w3.org/2000/svg"
   xmlns:sodipodi="http://sodipodi.sourceforge.net/DTD/sodipodi-0.dtd"
   xmlns:inkscape="http://www.inkscape.org/namespaces/inkscape"
   version="1.1"
   x="0px"
   y="0px"
   viewBox="0 0 78.025192 96"
   xml:space="preserve"
   id="svg72"
   sodipodi:docname="icon.svg"
   width="78.025192"
   height="96"
   inkscape:version="0.92.5 (2060ec1f9f, 2020-04-08)"><metadata
     id="metadata78"><rdf:RDF><cc:Work
         rdf:about=""><dc:format>image/svg+xml</dc:format><dc:type
           rdf:resource="http://purl.org/dc/dcmitype/StillImage" /><dc:title></dc:title></cc:Work></rdf:RDF></metadata><defs
     id="defs76" /><sodipodi:namedview
     pagecolor="#ffffff"
     bordercolor="#666666"
     borderopacity="1"
     objecttolerance="10"
     gridtolerance="10"
     guidetolerance="10"
     inkscape:pageopacity="0"
     inkscape:pageshadow="2"
     inkscape:window-width="1864"
     inkscape:window-height="1016"
     id="namedview74"
     showgrid="false"
     fit-margin-top="0"
     fit-margin-left="0"
     fit-margin-right="0"
     fit-margin-bottom="0"
     inkscape:zoom="6.9833333"
     inkscape:cx="39.025095"
     inkscape:cy="36"
     inkscape:window-x="56"
     inkscape:window-y="27"
     inkscape:window-maximized="1"
     inkscape:current-layer="svg72" /><g
     id="g66"
     transform="translate(-8.9749053)"><path
       style="clip-rule:evenodd;fill-rule:evenodd"
       d="m 63.594,33 1.355,2.032 c -1.954,1.039 -3.954,2.001 -5.997,2.883 -0.824,-0.934 -2.03,-1.523 -3.374,-1.523 -2.47,0 -4.475,1.99 -4.499,4.454 -2.797,0.881 -5.658,1.617 -8.574,2.199 -0.771,-1.371 -2.24,-2.297 -3.925,-2.297 -2.148,0 -3.944,1.505 -4.392,3.519 -2.601,0.248 -5.237,0.375 -7.903,0.375 -0.551,0 -1.1,-0.01 -1.648,-0.021 L 32.383,33 h -2.395 c -1.135,0 -2.109,-0.583 -2.645,-1.584 -0.536,-1.001 -0.481,-2.135 0.149,-3.08 l 6.598,-9.897 c 2.028,0.945 4.099,1.813 6.21,2.599 0.017,2.471 2.025,4.469 4.5,4.469 1.511,0 2.848,-0.745 3.664,-1.888 6,1.569 12.256,2.503 18.694,2.725 l 1.327,1.99 c 0.63,0.945 0.685,2.079 0.149,3.08 C 68.098,32.417 67.124,33 65.989,33 Z M 44.8,19.508 c -0.828,0 -1.5,0.672 -1.5,1.5 0,0.828 0.672,1.5 1.5,1.5 0.828,0 1.5,-0.672 1.5,-1.5 0,-0.828 -0.672,-1.5 -1.5,-1.5 z m 10.778,19.884 c -0.828,0 -1.5,0.672 -1.5,1.5 0,0.828 0.672,1.5 1.5,1.5 0.828,0 1.5,-0.672 1.5,-1.5 0,-0.828 -0.672,-1.5 -1.5,-1.5 z M 38.58,43.748 c -0.828,0 -1.5,0.672 -1.5,1.5 0,0.828 0.672,1.5 1.5,1.5 0.828,0 1.5,-0.672 1.5,-1.5 0,-0.828 -0.672,-1.5 -1.5,-1.5 z m -5.647,15.928 c 0.828,0 1.5,0.672 1.5,1.5 0,0.828 -0.672,1.5 -1.5,1.5 -0.828,0 -1.5,-0.672 -1.5,-1.5 0,-0.828 0.672,-1.5 1.5,-1.5 z m 16.39,4.648 c 0.828,0 1.5,0.672 1.5,1.5 0,0.828 -0.672,1.5 -1.5,1.5 -0.828,0 -1.5,-0.672 -1.5,-1.5 0,-0.829 0.671,-1.5 1.5,-1.5 z m 17.275,1.231 c 0.828,0 1.5,0.672 1.5,1.5 0,0.828 -0.672,1.5 -1.5,1.5 -0.828,0 -1.5,-0.672 -1.5,-1.5 0,-0.828 0.672,-1.5 1.5,-1.5 z m -3.829,16.857 c 0.828,0 1.5,0.672 1.5,1.5 0,0.828 -0.672,1.5 -1.5,1.5 -0.828,0 -1.5,-0.672 -1.5,-1.5 0,-0.828 0.671,-1.5 1.5,-1.5 z m -17.732,3.29 c 0.828,0 1.5,0.672 1.5,1.5 0,0.828 -0.672,1.5 -1.5,1.5 -0.828,0 -1.5,-0.672 -1.5,-1.5 0,-0.828 0.672,-1.5 1.5,-1.5 z m -18.74,-0.647 c 0.828,0 1.5,0.672 1.5,1.5 0,0.828 -0.672,1.5 -1.5,1.5 -0.828,0 -1.5,-0.672 -1.5,-1.5 0,-0.828 0.672,-1.5 1.5,-1.5 z M 66.622,37.542 c -2.131,1.142 -4.316,2.197 -6.549,3.159 0.002,0.064 0.005,0.128 0.005,0.192 0,2.485 -2.015,4.5 -4.5,4.5 -1.429,0 -2.703,-0.666 -3.527,-1.706 -2.945,0.93 -5.96,1.706 -9.034,2.316 -0.359,2.125 -2.209,3.745 -4.437,3.745 -1.767,0 -3.297,-1.019 -4.033,-2.502 -2.719,0.261 -5.475,0.395 -8.262,0.395 -1.209,0 -2.411,-0.032 -3.608,-0.081 l -1.184,1.776 c -0.63,0.945 -0.685,2.079 -0.149,3.08 C 21.88,53.417 22.853,54 23.989,54 h 2.395 l -1.26,1.891 c 1.475,0.789 2.977,1.534 4.503,2.234 0.822,-0.891 1.999,-1.449 3.307,-1.449 2.485,0 4.5,2.015 4.5,4.5 l -10e-4,0.055 c 2.62,0.89 5.299,1.652 8.03,2.278 0.787,-1.309 2.221,-2.185 3.86,-2.185 2.192,0 4.018,1.567 4.418,3.643 2.826,0.35 5.697,0.557 8.605,0.613 0.611,-1.761 2.284,-3.025 4.252,-3.025 1.87,0 3.474,1.141 4.153,2.765 1.996,-0.163 3.971,-0.397 5.924,-0.699 L 69.594,54 h 2.395 c 1.135,0 2.109,-0.583 2.645,-1.584 0.536,-1.001 0.481,-2.135 -0.149,-3.08 z M 35.774,15.914 c 1.802,0.827 3.639,1.592 5.507,2.29 0.824,-1.033 2.094,-1.695 3.519,-1.695 2.394,0 4.35,1.869 4.491,4.227 5.092,1.327 10.375,2.18 15.799,2.509 L 50.485,1.336 C 49.912,0.476 49.023,0 47.989,0 46.955,0 46.066,0.476 45.493,1.336 Z m 42.728,51.447 c -2.493,0.427 -5.022,0.747 -7.583,0.955 -0.545,1.872 -2.273,3.24 -4.321,3.24 -1.95,0 -3.609,-1.24 -4.234,-2.974 -3.064,-0.056 -6.089,-0.275 -9.067,-0.646 -0.757,1.421 -2.252,2.388 -3.974,2.388 -2.272,0 -4.15,-1.684 -4.456,-3.872 -2.882,-0.658 -5.708,-1.462 -8.471,-2.402 -0.826,0.994 -2.07,1.627 -3.463,1.627 -2.485,0 -4.5,-2.015 -4.5,-4.5 0,-0.098 0.003,-0.195 0.01,-0.291 -1.695,-0.775 -3.36,-1.604 -4.993,-2.485 l -7.957,11.935 c -0.63,0.945 -0.685,2.079 -0.149,3.08 C 15.88,74.417 16.853,75 17.989,75 h 2.395 l -5.075,7.613 c 2.314,0.68 4.671,1.261 7.065,1.738 0.771,-1.37 2.24,-2.296 3.924,-2.296 2.148,0 3.944,1.505 4.392,3.518 2.597,0.247 5.23,0.374 7.892,0.374 0.716,0 1.43,-0.01 2.142,-0.028 0.553,-1.86 2.275,-3.217 4.314,-3.217 1.798,0 3.349,1.054 4.07,2.578 3.116,-0.397 6.177,-0.969 9.174,-1.703 0.172,-2.329 2.115,-4.165 4.487,-4.165 1.448,0 2.737,0.685 3.56,1.748 3.572,-1.276 7.03,-2.791 10.355,-4.526 L 75.594,75 h 2.395 c 1.135,0 2.109,-0.583 2.645,-1.584 0.536,-1.001 0.481,-2.135 -0.149,-3.08 z m -0.145,11.783 c -3.556,1.873 -7.26,3.502 -11.09,4.866 -0.052,2.44 -2.046,4.402 -4.499,4.402 -1.534,0 -2.888,-0.768 -3.701,-1.939 -3.154,0.776 -6.377,1.378 -9.658,1.793 -0.478,1.972 -2.255,3.436 -4.373,3.436 -1.879,0 -3.488,-1.151 -4.162,-2.786 -0.762,0.02 -1.527,0.031 -2.294,0.031 -2.784,0 -5.536,-0.134 -8.252,-0.394 -0.736,1.483 -2.265,2.502 -4.033,2.502 -2.228,0 -4.078,-1.62 -4.437,-3.745 -2.817,-0.559 -5.584,-1.256 -8.294,-2.084 L 9.49,91.337 c -0.63,0.945 -0.685,2.079 -0.149,3.08 0.539,1 1.512,1.583 2.648,1.583 h 72 c 1.135,0 2.109,-0.583 2.645,-1.584 0.536,-1.001 0.481,-2.135 -0.149,-3.08 z"
       id="path64"
       inkscape:connector-curvature="0" /></g></svg>