<?xml version="1.0" encoding="UTF-8" standalone="no"?>
<svg
   xmlns:dc="http://purl.org/dc/elements/1.1/"
   xmlns:cc="http://creativecommons.org/ns#"
   xmlns:rdf="http://www.w3.org/1999/02/22-rdf-syntax-ns#"
   xmlns:svg="http://www.w3.org/2000/svg"
   xmlns="http://www.w3.org/2000/svg"
   height="38.799999"
   width="47"
   id="svg73"
   xml:space="preserve"
   enable-background="new 0 0 48 48"
   viewBox="0 0 47 38.799999"
   y="0px"
   x="0px"
   version="1.1"><metadata
     id="metadata79"><rdf:RDF><cc:Work
         rdf:about=""><dc:format>image/svg+xml</dc:format><dc:type
           rdf:resource="http://purl.org/dc/dcmitype/StillImage" /><dc:title></dc:title></cc:Work></rdf:RDF></metadata><defs
     id="defs77" /><g
     transform="translate(-0.5,-4.6)"
     id="g67"><g
       id="g63"><path
         style="fill:#000000"
         id="path55"
         d="M 34.2,17.2 V 4.8 h -7.4 c -1.1,0 -2,0.9 -2,2 v 10.4 z" /><path
         style="fill:#000000"
         id="path57"
         d="m 38.1,17.2 h 9.4 V 6.7 c 0,-1.1 -0.9,-2 -2,-2 h -7.4 z" /><path
         style="fill:#000000"
         id="path59"
         d="m 34.2,21.1 h -9.4 v 10.4 c 0,1.1 0.9,2 2,2 h 7.4 z" /><path
         style="fill:#000000"
         id="path61"
         d="m 38.1,21.1 v 12.4 h 7.4 c 1.1,0 2,-0.9 2,-2 V 21.1 Z" /></g><path
       style="fill:#000000"
       id="path65"
       d="M 18.1,4.6 H 2.5 c -1.1,0 -2,0.9 -2,2 v 34.8 c 0,1.1 0.9,2 2,2 h 15.6 c 1.1,0 2,-0.9 2,-2 V 6.6 c -0.1,-1.1 -0.9,-2 -2,-2 z M 8.9,23.9 c 0,1.1 -0.9,2 -2,2 -1.1,0 -2,-0.9 -2,-2 V 23 c 0,-1.1 0.9,-2 2,-2 1.1,0 2,0.9 2,2 z" /></g></svg>