<?xml version="1.0" encoding="UTF-8" standalone="no"?>
<svg
   xmlns:dc="http://purl.org/dc/elements/1.1/"
   xmlns:cc="http://creativecommons.org/ns#"
   xmlns:rdf="http://www.w3.org/1999/02/22-rdf-syntax-ns#"
   xmlns:svg="http://www.w3.org/2000/svg"
   xmlns="http://www.w3.org/2000/svg"
   height="57.09473"
   width="83.00515"
   id="svg3913"
   version="1.1"
   y="0px"
   x="0px"
   viewBox="0 0 83.00515 57.09473"
   data-name="Layer 1">
  <metadata
     id="metadata3919">
    <rdf:RDF>
      <cc:Work
         rdf:about="">
        <dc:format>image/svg+xml</dc:format>
        <dc:type
           rdf:resource="http://purl.org/dc/dcmitype/StillImage" />
        <dc:title>Artboard 25</dc:title>
      </cc:Work>
    </rdf:RDF>
  </metadata>
  <defs
     id="defs3917" />
  <title
     id="title3907">Artboard 25</title>
  <path
     id="path3909"
     d="m 73.5,38.094732 a 9.51,9.51 0 0 0 -8.82,6 H 36.32 a 9.51,9.51 0 0 0 -8.54,-6 l -1.54,-5 h 6 a 8.26,8.26 0 0 0 7.61,5 h 26.79 a 8.29,8.29 0 0 0 7.36,-4.53 l 7.87,-15.35 A 8.32,8.32 0 0 0 74.51,6.0947324 H 35.11 A 8.32,8.32 0 0 0 26.82,15.094732 H 20.7 L 17,3.0247324 A 3.23,3.23 0 0 0 13,0.09473244 H 3 A 3,3 0 0 0 3,6.0947324 h 8.66 L 22,39.834732 a 9.49,9.49 0 1 0 14.66,10.26 h 27.68 a 9.5,9.5 0 1 0 9.16,-12 z m -40.26,-25.06 a 2.3,2.3 0 0 1 1.87,-0.94 h 39.4 a 2.32,2.32 0 0 1 2.07,3.38 l -7.87,15.36 a 2.31,2.31 0 0 1 -2.07,1.26 H 39.83 a 2.31,2.31 0 0 1 -2.22,-1.64 l -4.72,-15.36 a 2.3,2.3 0 0 1 0.35,-2.06 z m -4.78,8.06 1.84,6 h -5.91 l -1.84,-6 z m -1,30 a 3.5,3.5 0 1 1 3.54,-3.5 3.5,3.5 0 0 1 -3.5,3.5 z m 46,0 a 3.5,3.5 0 1 1 3.54,-3.5 3.5,3.5 0 0 1 -3.5,3.5 z" />
  <path
     id="path3911"
     d="m 43,27.094732 h 21 a 3,3 0 0 0 0,-6 H 43 a 3,3 0 0 0 0,6 z" />
</svg>
