<?xml version="1.0" encoding="UTF-8" standalone="no"?>
<svg
   xmlns:dc="http://purl.org/dc/elements/1.1/"
   xmlns:cc="http://creativecommons.org/ns#"
   xmlns:rdf="http://www.w3.org/1999/02/22-rdf-syntax-ns#"
   xmlns:svg="http://www.w3.org/2000/svg"
   xmlns="http://www.w3.org/2000/svg"
   height="63.639999"
   width="90"
   id="svg874"
   xml:space="preserve"
   viewBox="0 0 90 63.639999"
   y="0px"
   x="0px"
   version="1.2"><metadata
     id="metadata880"><rdf:RDF><cc:Work
         rdf:about=""><dc:format>image/svg+xml</dc:format><dc:type
           rdf:resource="http://purl.org/dc/dcmitype/StillImage" /><dc:title></dc:title></cc:Work></rdf:RDF></metadata><defs
     id="defs878" /><polygon
     transform="translate(-5,-18.18)"
     id="polygon858"
     points="35.264,48.882 39.736,51.118 44.045,42.5 48.455,42.5 40.955,57.5 32.5,57.5 32.5,62.5 44.045,62.5 47.5,55.59 55.264,71.118 59.736,68.882 50.295,50 52.809,44.971 56.162,50 67.5,50 67.5,45 58.838,45 53.838,37.5 40.955,37.5 " /><path
     id="path860"
     d="m 47.5,14.32 c 0,2.757 2.243,5 5,5 2.757,0 5,-2.243 5,-5 0,-2.757 -2.243,-5 -5,-5 -2.757,0 -5,2.243 -5,5 z" /><path
     id="path862"
     d="M 18.484,5.304 13.181,0 C 4.681,8.5 0,19.8 0,31.82 0,43.84 4.681,55.14 13.181,63.64 l 5.303,-5.304 C 11.401,51.254 7.5,41.837 7.5,31.82 7.5,21.803 11.401,12.386 18.484,5.304 Z" /><path
     id="path864"
     d="M 71.516,5.304 C 78.599,12.386 82.5,21.803 82.5,31.82 c 0,10.017 -3.901,19.434 -10.984,26.516 l 5.303,5.304 C 85.319,55.14 90,43.84 90,31.82 90,19.8 85.319,8.5 76.819,0 Z" /><path
     id="path866"
     d="m 22.019,8.839 c -12.671,12.672 -12.671,33.29 0,45.962 l 3.535,-3.535 c -10.722,-10.723 -10.722,-28.169 0,-38.892 z" /><path
     id="path868"
     d="m 67.981,8.839 -3.535,3.535 c 10.722,10.723 10.722,28.169 0,38.892 l 3.535,3.535 c 12.671,-12.672 12.671,-33.29 0,-45.962 z" /></svg>